<?xml version="1.0" encoding="utf-8"?>
<!-- Generator: Adobe Illustrator 27.9.1, SVG Export Plug-In . SVG Version: 6.00 Build 0)  -->
<svg version="1.1" id="Layer_1" xmlns="http://www.w3.org/2000/svg" xmlns:xlink="http://www.w3.org/1999/xlink" x="0px" y="0px"
	 viewBox="0 0 206.9 197.2" style="enable-background:new 0 0 206.9 197.2;" xml:space="preserve">
<style type="text/css">
	.st0{fill:url(#SVGID_1_);}
	.st1{fill:#0A0D15;}
	.st2{fill:#FFFFFF;}
</style>
<g>
	<g>
		<linearGradient id="SVGID_1_" gradientUnits="userSpaceOnUse" x1="103.4421" y1="15.5065" x2="103.4421" y2="157.6528">
			<stop  offset="0" style="stop-color:#FF442F"/>
			<stop  offset="1" style="stop-color:#FF821C"/>
		</linearGradient>
		<path class="st0" d="M201.1,68.6c-2.2-1.1-4.7-2.1-7.3-2.7c-9.6-2.5-19.1-3.6-26.4-4.3c-7.7-0.8-15.6-1.4-23.2-2
			c-2.1-0.2-4.2-0.3-6.3-0.5c-6.4-16.7-12.8-31.1-19.5-44.1l-0.2-0.5c-1.7-3.3-3.5-6.8-5.9-9.9c-2.3-2.9-5.6-4.6-9-4.6
			c-3.3,0-6.4,1.5-8.7,4.2c-1.5,1.8-2.9,3.9-4.3,6.5c-7.5,14-14.5,29.4-22.1,48.4c-2.9,0.2-5.9,0.4-8.4,0.6
			c-11.4,0.9-21.8,1.7-32.2,3.4c-5.5,0.9-10.9,2.1-16.3,3.2c-3.1,0.7-5.8,2-7.9,3.8c-2.8,2.5-4,5.6-3.5,9.2c0.3,2.2,1.2,4.1,2.6,5.6
			l0.9,1c2.4,2.7,4.9,5.5,7.6,8c12.1,11.7,23.6,21.8,35.1,31c-0.5,2.4-0.9,4.6-1.4,6.6c-0.8,3.6-1.6,7.1-2.5,10.7
			c-1.5,6.5-3.1,13.2-4.5,19.8c-1.3,6-2.8,13-3.2,20.2c-0.2,3,0.2,6.2,1.1,8.4c1.5,4,4.7,6.3,8.6,6.3c0.5,0,1,0,1.5-0.1
			c2.7-0.4,5-1,6.9-1.9c4.6-2.1,9.4-4.4,14.1-7.2c9.5-5.6,19.1-11.4,28.4-17.1l7.5-4.6l2.1,1.3c7.1,4.4,14.4,8.9,21.6,13.2
			c7.4,4.5,15.5,9.2,24,13.1c3,1.4,6.5,2.8,10.5,3.2c0.3,0,0.7,0,1,0c4.7,0,8.1-2.6,9.3-7.1c0.6-2.2,0.9-4.1,0.8-5.8l0-0.4
			c-0.2-4-0.4-8.2-1.2-12.3c-1.4-7.7-3.1-15.4-4.7-22.8l-0.7-3.2c-1.1-5.3-2.4-10.7-3.5-15.8l-1.1-4.6c11-8.6,22.1-18.4,32.9-29
			c3.3-3.3,6.5-6.8,9.6-10.2c1.8-2,2.9-4.2,3.3-6.5C207.5,74.9,205.4,70.8,201.1,68.6z"/>
	</g>
	<path class="st1" d="M87.1,72.9c-4.3,0-7.8,3.5-8.1,7.8v31.5c0.3,4.3,3.8,7.8,8.1,7.8s7.8-3.5,7.8-7.8V80.7
		C94.8,76.4,91.4,72.9,87.1,72.9z"/>
	<path class="st1" d="M120,72.9c-4.3,0-7.8,3.5-7.8,7.8v31.5c0,4.3,3.5,7.8,7.8,7.8s7.8-3.5,7.8-7.8V80.7
		C127.8,76.4,124.3,72.9,120,72.9z"/>
	<circle class="st2" cx="86.9" cy="81.7" r="4.3"/>
	<circle class="st2" cx="88.9" cy="90.6" r="2.4"/>
	<circle class="st2" cx="120" cy="81.7" r="4.3"/>
	<circle class="st2" cx="122" cy="90.6" r="2.4"/>
</g>
</svg>
